<?xml version="1.0" encoding="UTF-8" standalone="no"?>
<!-- Created with Inkscape (http://www.inkscape.org/) -->

<svg
   xmlns:dc="http://purl.org/dc/elements/1.1/"
   xmlns:cc="http://creativecommons.org/ns#"
   xmlns:rdf="http://www.w3.org/1999/02/22-rdf-syntax-ns#"
   xmlns:svg="http://www.w3.org/2000/svg"
   xmlns="http://www.w3.org/2000/svg"
   version="1.1"
   width="1079.8033"
   height="974.6001"
   id="svg3429">
  <defs
     id="defs3">
    <filter
       color-interpolation-filters="sRGB"
       id="filter3911">
      <feGaussianBlur
         id="feGaussianBlur3913"
         stdDeviation="1.5994064" />
    </filter>
    <filter
       color-interpolation-filters="sRGB"
       id="filter3915">
      <feGaussianBlur
         id="feGaussianBlur3917"
         stdDeviation="1.9995891" />
    </filter>
    <filter
       color-interpolation-filters="sRGB"
       id="filter4568">
      <feGaussianBlur
         id="feGaussianBlur4570"
         stdDeviation="5.0016415" />
    </filter>
    <filter
       color-interpolation-filters="sRGB"
       id="filter3915-9">
      <feGaussianBlur
         id="feGaussianBlur3917-10"
         stdDeviation="1.9995891" />
    </filter>
    <filter
       color-interpolation-filters="sRGB"
       id="filter3911-8">
      <feGaussianBlur
         id="feGaussianBlur3913-5"
         stdDeviation="1.5994064" />
    </filter>
    <filter
       color-interpolation-filters="sRGB"
       id="filter3915-9-0">
      <feGaussianBlur
         id="feGaussianBlur3917-10-7"
         stdDeviation="1.9995891" />
    </filter>
    <filter
       color-interpolation-filters="sRGB"
       id="filter3911-8-9">
      <feGaussianBlur
         id="feGaussianBlur3913-5-0"
         stdDeviation="1.5994064" />
    </filter>
    <filter
       color-interpolation-filters="sRGB"
       id="filter4859">
      <feGaussianBlur
         id="feGaussianBlur4861"
         stdDeviation="3.3186843" />
    </filter>
  </defs>
  <metadata
     id="metadata4">
    <rdf:RDF>
      <cc:Work
         rdf:about="">
        <dc:format>image/svg+xml</dc:format>
        <dc:type
           rdf:resource="http://purl.org/dc/dcmitype/StillImage" />
        <dc:title></dc:title>
      </cc:Work>
    </rdf:RDF>
  </metadata>
  <g
     transform="translate(260.31625,64.697677)"
     id="layer1">
    <path
       d="m 153.69207,882.95632 c -1.89017,-0.81225 -2.5696,-1.5312 -1.51007,-1.59753 1.05952,-0.067 2.40549,-3.79373 2.99092,-8.28287 3.75095,-28.76177 6.78449,-56.53258 8.86883,-81.19114 1.3183,-15.59386 3.19145,-36.85821 4.16283,-47.25411 27.38459,-49.58158 15.03795,-63.88171 22.4835,-123.94734 1.06948,-1.07018 2.16647,-5.70967 2.43762,-10.30999 0.27115,-4.60032 1.49323,-13.05725 2.71565,-18.79339 l 2.22249,-10.42924 -5.97206,-11.0499 c -25.14932,-46.53223 -37.80775,-63.05776 -53.86968,-70.32665 -6.72589,-3.04385 -14.52763,-8.78411 -22.44174,-16.51196 -6.67263,-6.51539 -15.56499,-14.13516 -19.760808,-16.93278 -4.19599,-2.79761 -12.2914,-9.46405 -17.9899,-14.81459 -12.43281,-11.67331 -24.135674,-17.90037 -36.893252,-19.6309 -5.197951,-0.70503 -13.61932,-3.50419 -18.714,-6.22036 -10.973948,-5.8504 -17.6429629,-6.20128 -26.6019969,-1.39958 -7.5244001,4.03293 -9.9554951,3.24129 -5.423912,-1.7661 2.991614,-3.3059 2.938002,-3.45917 -1.8721221,-5.33954 -2.723555,-1.06468 -7.870644,-2.34862 -11.437727,-2.85295 -3.567084,-0.5045 -6.888106,-1.56832 -7.379886,-2.36408 -0.49179,-0.79575 -0.0292,-4.65599 1.02618,-8.57825 1.89687,-7.0443 4.191701,-7.34243 5.389378,-0.70005 0.338855,1.87934 1.953227,3.67448 3.58736,3.98911 2.597258,0.50021 2.838168,-0.47099 1.913705,-7.71273 -1.65922,-12.99797 -3.45058,-13.83394 -16.146643,-7.53471 -9.8206,4.8725 -11.347,5.17183 -16.96783,3.32858 -10.34607,-3.39284 -13.54818,-6.88535 -17.91944,-19.54378 -9.55049,-27.65688 -9.54173,-27.4933 -1.49323,-27.4933 3.85353,0 4.82662,-1.11228 6.76524,-7.73249 2.49278,-8.51296 6.64805,-15.00137 8.45195,-13.19747 0.63664,0.63664 -1.33514,8.76813 -4.38157,18.06997 l -5.53921,16.91233 4.54687,11.35782 c 5.13816,12.83474 7.51083,15.47633 13.17857,14.67301 4.20716,-0.59644 5.08643,-5.56087 2.22971,-12.58987 -1.23376,-3.03595 -0.8657,-2.95278 3.15726,0.71311 3.9556,3.60454 5.13145,3.88669 8.94769,2.14791 2.41649,-1.10094 5.928074,-2.00186 7.803461,-2.00186 1.875386,0 3.831878,-1.10007 4.347893,-2.44467 0.515843,-1.34459 2.130387,-2.90209 3.587703,-3.4614 2.097223,-0.8047 2.465118,-0.0516 1.764211,3.61519 -0.589044,3.08132 0.312221,6.25181 2.692109,9.47076 2.382294,3.22221 3.8291291,8.31844 4.3308821,15.25414 0.596089,8.24111 1.51574,10.90453 4.405801,12.75964 5.43250304,3.48684 14.9836749,4.00354 16.4782789,0.8913 3.813321,-7.93955 4.952231,-9.45082 7.122311,-9.45082 1.642895,0 2.390197,2.1486 2.390197,6.87332 0,6.46299 0.461715,7.09001 7.73249,10.50261 5.272183,2.47474 9.807374,3.36879 14.253728,2.81016 9.230703,-1.1597 7.828201,-3.98086 -4.373325,-8.79648 -3.434428,-1.35559 -4.72541,-3.06396 -4.72541,-6.25301 0,-2.41322 -1.120524,-7.06938 -2.489862,-10.34676 -2.02849,-4.8548 -3.411918,-5.959 -7.466148,-5.959 -2.774246,0 -6.336345,1.50286 -8.049864,3.39611 -2.951234,3.26105 -6.05076,3.26054 -6.05076,-10e-4 0,-0.85641 2.319747,-4.19926 5.154994,-7.42834 2.835246,-3.22926 5.154991,-6.3092 5.154991,-6.84463 0,-0.53526 -1.933121,-3.05932 -4.295826,-5.60863 -4.64104,-5.00774 -5.95058,-10.42976 -1.952883,-8.0851 1.288748,0.75573 5.659837,5.2404 9.713724,9.96581 4.054058,4.72541 8.689256,9.52522 10.300707,10.6662 1.611451,1.14097 3.931542,5.65245 5.155853,10.02543 1.720908,6.14595 3.697333,8.87964 8.70644,12.04172 3.564162,2.24998 8.949412,7.16338 11.967317,10.91862 3.086122,3.84047 8.593543,8.05966 12.586943,9.64275 3.90508,1.54805 10.72428,5.85333 15.15397,9.56716 12.839018,10.76465 13.069278,2.16114 0.46343,-17.32611 -7.89625,-12.20688 -13.47739,-17.91707 -23.98223,-24.53659 -7.233317,-4.55805 -17.672694,-15.03987 -34.177264,-34.31628 -9.814076,-11.46247 -10.032304,-11.59873 -18.563472,-11.59873 -8.5557429,0 -8.6222419,0.043 -7.4618529,4.72541 l 1.170699,4.72541 -3.628944,-3.86625 c -1.99584096,-2.12643 -5.502783,-3.86624 -7.793318,-3.86624 -9.1221051,0 -22.7620441,-6.95065 -32.9651541,-16.79858 -5.60468,-5.40965 -16.23496,-15.19228 -23.62275,-21.73964 -7.74916,-6.86731 -14.52935,-14.50116 -16.02499,-18.04247 -3.28287,-7.77287 -15.87858,-54.21283 -15.87858,-58.54371 0,-1.78501 1.73981,-4.46423 3.86624,-5.95351 2.12644,-1.48944 3.67294,-3.27307 3.43667,-3.96384 -0.23627,-0.6906 -0.18988,-1.97471 0.1031,-2.85346 1.13856,-3.4157 6.37758,0.98151 13.28029,11.14612 8.2717,12.18074 11.94395,11.2836 6.89927,-1.68568 -1.68207,-4.32435 -3.61468,-10.91604 -4.29479,-14.64808 -0.67995,-3.73205 -2.3323,-8.35041 -3.67191,-10.26274 -7.07368,-10.09914 0.55262,-10.3648 11.21589,-0.39057 5.59472,5.23317 11.48224,8.63805 19.61905,11.34579 6.39425,2.12781 12.05856,3.43598 12.58746,2.90708 2.52732,-2.52732 -2.28641,-6.62778 -17.3261,-14.75961 -16.36882,-8.85043 -20.00447,-12.35239 -25.58114,-24.64138 -5.09537,-11.22844 -2.83009,-21.1518 2.94591,-12.90518 4.0269,5.74902 3.40538,0.0619 -0.86364,-7.90364 -2.09327,-3.90542 -2.92563,-7.27284 -2.02144,-8.17719 2.14482,-2.14482 7.15668,3.82071 9.86958,11.7472 2.05701,6.01003 2.83232,6.60165 9.2874,7.08588 8.22995,0.61739 9.74191,4.82902 2.31786,6.45577 -9.24789,2.02625 -9.3314,2.09963 -7.17592,6.30748 2.83799,5.54024 7.83662,9.40287 19.63382,15.17166 11.83535,5.78733 16.325693,6.34785 16.320538,2.03708 0,-4.94897 -19.104408,-32.06492 -28.580318,-40.57822 -9.12674,-8.19953 -16.09268,-20.19297 -16.09268,-27.70671 0,-7.47251 4.6852,-4.81786 10.39126,5.88803 6.39752,12.00289 20.5387,23.531 20.5387,16.74342 0,-5.89216 5.49642,-20.07269 7.78026,-20.07269 2.069899,0 2.310293,2.56238 1.419,15.12029 -0.94045,13.24747 -0.60847,16.17155 2.680076,23.60574 3.817273,8.62963 9.758746,16.26057 12.660664,16.26057 0.881332,0 1.050931,-1.35319 0.37683,-3.00708 -2.155475,-5.28799 -5.752629,-34.95618 -6.594612,-54.39102 l -0.439549,-10.14383 -7.652587,-2.28795 c -4.209052,-1.25834 -13.283042,-2.29965 -20.164442,-2.31391 -10.00962,-0.0206 -12.72871,-0.59128 -13.5963,-2.85209 -1.95597,-5.09725 3.92089,-7.27885 18.10657,-6.72159 7.23607,0.28421 14.62541,1.12946 16.420719,1.87814 2.926662,1.22035 3.118428,0.84318 1.85408,-3.64682 -4.090139,-14.524533 1.054368,-21.715753 5.657089,-7.90759 1.358513,4.07571 2.882329,6.99808 3.386143,6.49426 0.503815,-0.50381 -0.448828,-10.683203 -2.116812,-22.620963 -2.464602,-17.638156 -2.650697,-22.980276 -0.993367,-28.512271 2.607396,-8.702316 5.878755,-7.702762 6.991202,2.136401 0.595574,5.268403 1.237886,6.676748 2.093958,4.591897 1.3348001,-3.250567 5.6560591,-4.040484 7.3255891,-1.339268 0.56705,0.917417 -0.217712,4.082239 -1.74359,7.033129 -1.525878,2.950719 -2.387793,5.75177 -1.915252,6.224311 1.825899,1.825899 6.26761304,-9.946731 6.26761304,-16.612138 0,-4.735376 0.861055,-7.343116 2.65155596,-8.030104 7.5340229,-2.891092 6.061241,11.975736 -2.77149596,27.976833 -6.64925404,12.04516 -6.78208104,12.6196 -5.67564704,24.524363 1.19991,12.91034 2.37817,14.9457 9.205099,15.90092 3.800261,0.53183 4.445495,-0.23025 5.879098,-6.94429 1.0901089,-5.10533 0.9600319,-10.68956 -0.402433,-17.286753 -1.107121,-5.35982 -2.001512,-11.63173 -1.987593,-13.93755 0.03265,-5.450206 3.9903079,-12.904154 6.5588689,-12.35446 1.1042,0.23627 2.007526,-1.071208 2.007526,-2.905698 0,-4.070555 3.10176,-6.278438 5.479757,-3.900612 1.64891,1.648911 0.596089,8.90422 -2.991269,20.61482 -1.150423,3.75507 -0.985635,3.83531 3.738571,1.8216 2.718056,-1.15867 5.439205,-2.53969 6.046979,-3.06894 0.607773,-0.52942 1.638257,-9.854799 2.29002,-20.723243 l 1.184961,-19.760807 -8.000034,-5.637672 c -8.546462,-6.022579 -9.380196,-10.031617 -1.976768,-9.503746 2.495704,0.177848 4.537768,0.05327 4.537768,-0.278713 0,-0.331122 -3.191972,-6.138566 -7.093269,-12.905182 -5.495566,-9.5317547 -6.629149,-12.75895272 -5.032991,-14.32710172 2.295862,-2.25565298 4.599972,0.130593 12.042062,12.47113272 5.1641,8.563131 6.957523,8.812976 6.957523,0.969654 0,-4.8685477 0.654512,-6.0141587 3.436662,-6.0141587 1.890164,0 3.436662,0.864492 3.436662,1.921094 0,2.0142277 10.255859,14.4030507 11.923328,14.4030507 0.530277,0 1.026702,-1.933122 1.102996,-4.295827 0.254313,-7.857241 2.714448,-18.86933872 4.456148,-19.9457007 3.375662,-2.086398 5.059626,2.465633 5.775311,15.6127567 0.758471,13.93051 2.542618,18.079592 7.774418,18.079592 2.62063,0 2.95811,-0.987353 2.11441,-6.186163 -0.68339,-4.211458 -0.27167,-6.638601 1.29012,-7.603787 1.87693,-1.160046 1.70407,-3.15245 -0.95041,-10.9622647 -3.36484,-9.898963 -2.47852,-17.9544993 2.1443,-19.4893123 2.33281,-0.774624 3.75215,2.2573713 8.15194,17.4135683 1.61506,5.5639557 4.48038,13.6830697 6.36727,18.0424757 l 3.43065,7.926318 3.37188,-7.091896 3.37206,-7.091896 -4.38725,-6.465049 c -5.22819,-7.7039667 -5.56842,-11.14028472 -1.10334,-11.14028472 3.10159,0 12.181078,8.93738402 12.181078,11.99034272 0,1.790673 11.4678,8.629631 14.47058,8.629631 1.23514,0 3.57465,-3.479621 5.19881,-7.73249 1.62417,-4.2528697 4.04908,-7.7324907 5.38852,-7.7324907 1.33944,0 2.43539,0.722903 2.43539,1.606469 0,0.883565 0.8583,3.7832487 1.90752,6.4437407 1.77246,4.494639 2.00735,4.593787 3.31586,1.400612 0.77462,-1.890164 1.46264,-7.4060067 1.52914,-12.2575437 0.10482,-7.686782 -0.36394,-8.947522 -3.64904,-9.806516 -3.56863,-0.933225 -3.61434,-1.157467 -0.85917,-4.2020063 1.6008,-1.76885 2.91068,-4.076225 2.91068,-5.127328 0,-3.513987 3.54578,-4.156128 7.74761,-1.403018 5.47237,3.585642 5.67926,3.520173 6.31435,-1.999793 0.41842,-3.636161 1.53396,-4.802908 4.83968,-5.061688 2.36271,-0.185065 7.38883,-1.133068 11.16916,-2.107018 3.78032,-0.973778 9.44016,-1.788954 12.57732,-1.811464 4.94192,-0.03608 5.6308,0.475462 5.15499,3.825176 -0.39556,2.785243 -1.75029,3.90422 -4.84483,4.001993 -8.25882,0.260671 -10.30999,0.73579 -10.30999,2.387793 0,0.915527 1.10059,1.242182 2.4457,0.725995 3.66881,-1.408 6.03151,4.615609 4.95601,12.6345453 -0.89061,6.63997498 -0.70916,7.038971 2.7849,6.12516298 3.58272,-0.936834 3.68926,-0.611898 2.56822,7.83782402 -1.51695,11.4360087 1.34665,11.5406557 4.44515,0.163242 4.235,-15.552444 11.17705,-15.507252 9.40855,0.06186 -1.11657,9.8290257 0.42391,6.4088587 7.73936,-17.183312 5.91226,-19.0669453 7.58145,-22.3383043 11.39821,-22.3383043 3.29266,0 2.89848,6.396316 -0.91123,14.785208 -1.76164,3.878789 -4.0874,11.1772283 -5.16857,16.21864028 -1.92591,8.98017102 -1.86903,9.24513702 2.81102,13.07581272 6.30266,5.158945 8.73084,5.00842 11.16004,-0.6918 1.10746,-2.5989757 3.08561,-6.0143307 4.39583,-7.5895257 1.67899,-2.018523 1.89103,-3.79424702 0.71844,-6.014159 -0.91518,-1.732593 -1.77968,-6.24304 -1.9211,-10.0233683 -0.1409,-3.780329 -0.42081,-8.806447 -0.62083,-11.169153 -0.27717,-3.27153 0.45536,-4.295827 3.07272,-4.295827 2.94316,0 3.66056,1.665406 4.99622,11.598735 1.63448,12.1542713 3.01086,13.8638383 6.57159,8.1620723 2.31613,-3.7085023 6.47467,-4.6644103 6.47467,-1.488075 0,1.071723 -0.85814,4.812358 -1.90683,8.31259898 -1.5654,5.22492902 -1.3958,7.35222402 0.94766,11.88397872 1.64873,3.188363 2.37799,7.0211 1.72657,9.073991 -1.96096,6.178259 3.17668,2.667709 7.52337,-5.140903 4.03293,-7.2448277 8.89254,-9.5992847 8.89254,-4.308544 0,1.5776 -2.31975,6.978658 -5.15499,12.002371 -5.91347,10.477868 -6.11761,12.147914 -2.53368,20.725306 l 2.62131,6.273627 7.32404,-7.187951 c 11.36573,-11.154545 15.91673,-8.976217 6.38635,3.056911 -7.30531,9.22383 -9.14547,14.782115 -5.95127,17.976321 3.30504,3.305038 6.22139,2.100488 9.87044,-4.076913 6.29683,-10.659667 5.12303,-29.764414 -2.41786,-39.351155 -1.79909,-2.287099 -3.27102,-5.626332 -3.27102,-7.420441 0,-6.4793107 -8.2162,-19.7585747 -13.60643,-21.9913737 -8.39955,-3.4791053 -22.98835,-20.6780533 -17.54004,-20.6780533 4.11111,0 21.74737,11.388239 33.43409,21.5894553 2.88782,2.52062 3.4102,2.508592 6.34442,-0.146058 4.96134,-4.4899993 7.73833,-2.4070383 7.10358,5.328889 -0.45879,5.592136 -0.16324,6.354732 1.7362,4.490686 1.58911,-1.55904202 2.25102,-6.943604 2.16476,-17.6128933 -0.0894,-11.045089 0.46755,-15.367551 1.97986,-15.367551 1.15712,0 2.89281,2.263042 3.85713,5.02904 1.37192,3.935493 2.52922,4.825933 5.32305,4.095298 4.65307,-1.21675 4.70668,2.674926 0.13918,10.165303 -4.89724,8.0323393 -4.40769,9.9219883 2.57114,9.9219883 7.82082,0 7.64984,2.63952798 -0.41704,6.437899 -11.64323,5.482336 -15.01254,18.7951057 -6.94463,27.4393427 3.12358,3.346793 3.4157,5.142449 2.41941,14.866656 -0.62324,6.083235 -1.97161,13.465529 -2.99643,16.405422 -1.02481,2.939893 -1.38153,6.600625 -0.79283,8.135095 0.97085,2.530071 1.38755,2.503265 4.47144,-0.287821 1.8704,-1.692727 3.40092,-4.477111 3.40092,-6.187538 0,-1.710427 1.5465,-3.937556 3.43666,-4.949137 2.64881,-1.417623 3.43666,-3.597842 3.43666,-9.511306 0,-5.67393 0.67118,-7.672005 2.5775,-7.672005 1.73122,0 2.57732,1.731562 2.57732,5.274589 0,4.459241 0.58595,5.189532 3.7915,4.725411 3.52859,-0.511032 3.79665,-1.472267 3.86625,-13.865557 0.0412,-7.324042 -0.45244,-13.316722 -1.09699,-13.317066 -0.64437,-3.43e-4 -2.92683,2.512372 -5.07217,5.583889 -6.5544,9.384493 -11.16795,10.15293 -9.27727,1.545295 0.5521,-2.514262 -0.16667,-8.433225 -1.59925,-13.153481 -3.10244,-10.2285367 -3.26362,-12.8780317 -0.78373,-12.8780317 1.02121,0 3.07152,3.092996 4.5565,6.8733237 2.95845,7.531274 5.44058,8.771565 6.84068,3.417933 0.49694,-1.900646 2.65568,-3.895285 4.79723,-4.432779 3.90388,-0.979792 7.96876,-7.3924327 10.79336,-17.0276307 0.83115,-2.835246 2.89367,-5.423053 4.5833,-5.7505673 3.19335,-0.618943 3.19386,2.8716753 0,15.6309713 -1.46453,5.8546977 1.60372,6.3122897 7.18245,1.07138 2.1749,-2.043268 5.05155,-3.208125 6.52554,-2.642622 4.34514,1.667469 1.10506,6.129288 -5.8016,7.9890367 -8.05245,2.168362 -11.98708,6.43979 -13.28201,14.418688 -0.88821,5.475634 -0.58132,6.227232 2.5433,6.227232 3.10141,0 3.42944,0.765001 2.57749,6.014159 -1.12447,6.929341 1.65252,8.162759 4.83539,2.147913 1.12533,-2.126434 4.61578,-7.018866 7.75654,-10.872052 3.14077,-3.853185 6.82295,-9.66819 8.18266,-12.922365 2.52956,-6.054368 8.95749,-13.1053687 10.52134,-11.5415147 0.47908,0.479243 -0.27647,3.618118 -1.67932,6.9753937 -2.4799,5.935287 -2.40515,6.28703 2.70397,12.721664 2.88989,3.639769 5.56378,6.929686 5.94198,7.310983 0.37821,0.38147 1.84601,-2.078665 3.26174,-5.467042 2.64932,-6.340813 5.50966,-9.239638 7.32507,-7.424049 0.56877,0.568595 0.19332,2.772355 -0.83407,4.897415 -3.6317,7.511341 -3.87553,14.551 -0.64953,18.757817 1.69015,2.204103 3.56691,5.360677 4.17056,7.014571 1.97161,5.400715 5.09588,3.425321 4.07657,-2.577497 -1.23858,-7.293456 0.85521,-18.854902 3.57911,-19.762868 1.46041,-0.486803 2.14568,1.381538 2.15461,5.873084 0.0275,13.983262 3.7482,29.134131 10.26686,41.80751 3.64733,7.090865 7.07695,14.303045 7.62149,16.026705 1.77624,5.62341 6.87298,2.26235 12.58488,-8.2992 5.0992,-9.428309 5.4934,-11.244929 4.65855,-21.468999 -0.58767,-7.196886 -0.0569,-13.919169 1.49249,-18.901642 2.82654,-9.089627 7.30404,-10.571516 6.94316,-2.297924 -0.18003,4.127259 0.60088,5.653653 3.24651,6.345453 2.94357,0.769812 3.34716,1.925046 2.60367,7.452917 -0.48395,3.598186 -2.49693,9.635026 -4.47328,13.415355 -10.46117,20.00979 -14.27985,28.57653 -15.16238,34.015393 -0.8547,5.26686 -0.12544,6.94687 5.85976,13.49354 3.7598,4.11265 8.44423,11.15059 10.40984,15.63973 1.9656,4.48914 4.39436,8.16208 5.39721,8.16208 1.00287,0 5.83056,-1.93313 10.72821,-4.29583 10.18115,-4.91151 9.97997,-4.8591 9.97997,-2.60052 0,0.93236 -2.64414,2.80002 -5.87585,4.15028 -8.04624,3.36192 -10.43031,8.16345 -7.17709,14.45443 5.61884,10.8657 9.78117,10.7528 19.69061,-0.53337 4.93836,-5.62444 5.39064,-7.14379 5.39064,-18.10812 0,-9.49309 0.5331,-11.96852 2.5775,-11.96852 1.91087,0 2.5775,2.00839 2.5775,7.76531 0,7.42474 0.18829,7.71789 4.29583,6.68689 3.24853,-0.81535 4.29582,-0.40432 4.29582,1.68568 0,1.52004 -0.77182,2.76377 -1.71517,2.76377 -0.94334,0 -3.84861,3.42772 -6.45614,7.61701 -2.60754,4.18947 -8.02171,9.99365 -12.03148,12.89831 -6.64598,4.81425 -7.2905,5.94113 -7.2905,12.74658 0,8.51811 -2.57398,17.15032 -7.02128,23.54698 -3.08141,4.43209 -8.42803,30.2739 -8.43822,40.78459 -0.005,5.76775 2.29882,8.68634 13.60873,17.23589 4.38601,3.31552 5.28743,5.19108 5.28743,11.00179 0,6.27655 -1.04258,8.02168 -10.02813,16.78689 -5.51548,5.38027 -11.84016,13.57464 -14.05485,18.20984 -2.21469,4.63537 -5.7594,10.74748 -7.87714,13.58272 -3.04234,4.07313 -12.71658,26.45165 -12.71658,29.41628 0,0.35999 1.57967,0.65452 3.51037,0.65452 1.93064,0 7.22578,-3.4755 11.76697,-7.72321 4.54119,-4.24772 10.60595,-8.19301 13.47725,-8.76727 6.08241,-1.21641 8.83296,-6.0951 10.26809,-18.21242 0.53604,-4.52609 2.15182,-9.20167 3.59061,-10.39024 2.3164,-1.91353 2.47804,-0.80899 1.41144,9.645 -0.6625,6.4934 -1.36676,12.58265 -1.56504,13.53185 -0.79749,3.81814 3.827,2.82305 11.70118,-2.51752 12.31954,-8.35573 14.41243,-12.1163 15.56968,-27.97529 1.25868,-17.24895 2.88783,-21.39065 10.27632,-26.12551 6.28368,-4.02673 7.35805,-3.39439 3.59546,2.11613 -3.83695,5.61928 -7.99567,19.87507 -7.99567,27.40841 0,13.05244 6.65021,14.47831 23.73228,5.08884 12.73185,-6.99825 36.40931,-29.80257 36.40931,-35.06667 0,-1.88244 1.26214,-6.57692 2.80479,-10.43234 1.94301,-4.856 2.49452,-9.62952 1.79499,-15.53611 -1.03083,-8.70369 2.94539,-22.00684 7.40064,-24.76047 3.53179,-2.18279 3.67321,0.28559 0.35577,6.21005 -4.06672,7.26236 -4.23445,28.29421 -0.24548,30.7815 2.03615,1.26967 2.09927,2.11801 0.34308,4.61183 -1.1836,1.68087 -2.94659,4.90721 -3.91774,7.16956 -0.97117,2.26253 -3.93256,6.90202 -6.58089,10.30999 -7.25584,9.33724 -7.51488,10.15482 -3.84095,12.12093 2.56203,1.37123 4.00925,1.15747 6.06228,-0.89559 1.48326,-1.48327 2.69683,-2.16029 2.69683,-1.50457 0,0.65571 1.19264,0.20259 2.65032,-1.00729 3.03333,-2.51735 7.14272,0.16324 5.16236,3.36742 -1.36138,2.20272 -19.69726,14.1532 -22.34067,14.56045 -3.99067,0.61499 -24.63967,11.37999 -32.1596,16.76575 -41.80411,29.94037 -44.86239,33.77191 -25.12829,31.48155 9.42634,-1.09407 10.22967,-0.9279 9.67204,2.00151 -0.48873,2.56718 -2.6296,3.36466 -10.90169,4.06041 -5.66144,0.47633 -11.44227,1.60115 -12.84628,2.49966 -1.40401,0.89834 -5.01167,1.42175 -8.01699,1.1628 -7.24272,-0.6241 -16.06439,4.0202 -16.06439,8.45728 0,5.26737 4.28055,5.78682 12.98055,1.57519 5.62602,-2.72355 8.42645,-3.29198 9.74122,-1.97711 1.15616,1.15609 5.9209,1.46453 12.75921,0.826 9.09318,-0.8492 10.91396,-0.58079 10.91396,1.60887 0,1.89996 -2.64504,2.95846 -9.54873,3.82106 -10.23928,1.2793 -12.16527,4.75823 -3.21182,5.8016 2.7593,0.32167 5.44773,1.28187 5.97433,2.13382 0.95644,1.54753 24.64281,-12.53007 31.50836,-18.72654 1.99667,-1.80219 6.28648,-4.16661 9.53291,-5.25449 3.24641,-1.0877 7.11265,-3.04694 8.59166,-4.3539 1.61248,-1.42467 7.84863,-2.62011 15.57655,-2.9856 11.88769,-0.56224 12.88748,-0.34659 12.88748,2.77957 0,2.64795 -1.60276,3.66279 -7.3293,4.64035 -9.83549,1.67898 -10.71318,2.41838 -10.71318,9.02365 0,3.12444 -1.54338,7.64313 -3.42977,10.04124 -4.0227,5.11392 -18.66836,14.09942 -20.30825,12.45944 -0.62147,-0.62135 2.91886,-4.93144 7.86738,-9.57798 8.72773,-8.19506 10.8089,-12.32919 7.2988,-14.49859 -2.13656,-1.32036 -14.38454,4.50564 -22.54811,10.72565 -3.41228,2.60001 -9.21165,7.01767 -12.88749,9.81717 -3.67583,2.79951 -10.30722,8.39061 -14.73644,12.42491 -4.4292,4.03413 -14.31962,11.31315 -21.97869,16.17586 -13.68673,8.68942 -16.81727,12.3871 -7.39698,8.73685 9.31186,-3.60815 25.11674,-5.80762 33.87237,-4.71373 l 8.873,1.10867 5.50378,-7.66393 c 6.22878,-8.67344 6.54918,-10.10945 2.92629,-13.11619 -3.2799,-2.72201 -3.30845,-5.15499 -0.0605,-5.15499 6.3221,0 7.82035,11.72142 2.59396,20.29366 -3.59631,5.89869 -3.25621,8.91797 1.00457,8.91797 1.36184,0 2.47608,0.73819 2.47608,1.64049 0,2.96034 -11.22838,3.89098 -17.33511,1.43686 -6.55074,-2.63265 -27.34146,-0.79026 -27.34146,2.42268 0,1.11915 2.85648,1.33514 7.81703,0.59128 8.52244,-1.2781 17.95793,0.11513 17.95793,2.6519 0,0.90195 -3.9252,1.18135 -9.02124,0.64179 -10.67633,-1.13014 -16.04237,1.27844 -11.16915,5.01324 1.6539,1.26761 3.00708,2.7995 3.00708,3.40401 0,2.30514 -11.7987,0.95161 -22.13554,-2.53918 -10.15846,-3.43065 -11.13546,-3.48082 -17.08738,-0.8791 -9.30637,4.06832 -34.78465,12.4268 -42.01195,13.78274 -3.45368,0.64781 -6.81233,2.04034 -7.46375,3.0942 -0.84971,1.375 1.92402,1.6044 9.82009,0.81225 29.72359,-2.98182 41.07525,-3.35281 41.07525,-1.3427 0,1.11416 -0.96656,2.29689 -2.14792,2.62836 -1.18135,0.33146 -5.24091,1.38892 -9.02124,2.35016 -3.78032,0.96106 -10.35294,2.65138 -14.6059,3.75627 -4.25286,1.10471 -12.4658,3.00313 -18.25108,4.2185 -6.93192,1.45612 -14.44429,4.78521 -22.03158,9.76322 -9.76424,6.40645 -12.42766,9.2917 -17.53454,18.99546 -8.49233,16.13633 -16.06894,24.29119 -27.6053,29.71235 -14.19822,6.67176 -18.89631,11.79978 -22.8349,24.92439 -3.15967,10.52839 -12.53849,26.31538 -21.48378,36.16228 -2.14636,2.3627 -4.46611,6.22895 -5.15516,8.59165 -0.68905,2.36271 -3.78841,8.5487 -6.88724,13.74665 -11.01588,18.47756 -11.30473,20.63269 -9.50255,70.89903 -6.07334,117.1199 17.15433,205.58113 -1.44336,209.31266 -12.0498,-0.14434 -113.71901,-2.98491 -114.90036,-3.94821 -1.48292,-1.20902 -2.14792,-1.15403 -2.14792,0.1775 0,2.23452 -2.84229,2.31185 -7.73249,0.21033 z M 262.8231,497.86114 c 1.78414,-3.41174 9.22469,-14.23706 16.5343,-24.05663 13.84218,-18.59475 22.9703,-34.16077 22.9703,-39.17073 0,-1.60905 -2.31974,-6.58362 -5.15499,-11.05437 -2.83525,-4.47058 -5.15499,-8.48821 -5.15499,-8.92793 0,-2.11269 4.96718,-0.41859 7.73249,2.63712 6.82486,7.54141 13.85885,1.17757 11.86954,-10.73888 -4.86047,-29.11558 -11.64736,-40.43835 -29.96649,-49.99364 -12.01818,-6.26865 -12.99591,-6.49512 -19.20029,-4.44756 -7.81239,2.57836 -9.03172,1.78621 -6.34081,-4.11987 2.70568,-5.93821 -1.53911,-12.56134 -10.19349,-15.90487 -3.47051,-1.34082 -10.20705,-4.44739 -14.9701,-6.90374 -8.26379,-4.26163 -8.947,-4.346 -14.93109,-1.84566 -4.71545,1.97024 -6.06227,2.07643 -5.42993,0.42804 1.14716,-2.98921 -6.1365,-7.47749 -13.23785,-8.15692 -4.04203,-0.3868 -6.01106,-1.5331 -6.43017,-3.74287 -0.53921,-2.84418 0.17631,-3.0533 6.68328,-1.95392 l 7.28727,1.23119 -1.06983,-5.34899 c -1.35422,-6.77074 0.65004,-6.85546 4.58519,-0.19383 3.2461,5.49522 7.56049,7.39999 4.86511,2.14791 -2.28881,-4.4601 -3.94958,-17.27593 -2.36562,-18.25503 2.5079,-1.54994 4.6132,1.40009 7.816,10.95213 4.42968,13.21087 7.0388,16.70252 13.52653,18.10107 3.10365,0.66912 10.71397,4.21592 16.91199,7.88181 6.19802,3.66606 12.1907,6.66541 13.31706,6.66541 6.25095,0 -2.98749,-9.25872 -12.53746,-12.56496 -6.59237,-2.28228 -10.25465,-6.33669 -5.72393,-6.33669 1.27346,0 6.47828,1.52159 11.56609,3.38134 5.08797,1.85957 9.90978,2.97391 10.71534,2.47594 2.57062,-1.58877 1.5843,-8.94701 -2.68283,-20.01546 -2.28126,-5.91673 -4.63228,-12.95004 -5.22459,-15.62943 -1.55423,-7.03055 -9.20957,-13.62362 -14.32727,-12.33916 -2.24741,0.56413 -5.56705,0.55571 -7.3768,-0.0189 -3.84682,-1.22088 -4.46199,-5.96777 -0.77359,-5.96777 1.38446,0 3.4334,-1.73981 4.55306,-3.86624 3.44337,-6.53842 9.46354,-8.99701 7.96086,-3.25109 -0.45914,1.75597 -0.11169,4.48468 0.77222,6.06417 1.93724,3.46192 15.06306,11.99979 16.397,10.66585 0.51997,-0.51997 1.30645,-4.70342 1.74789,-9.29652 0.72118,-7.50618 0.24709,-8.9836 -4.68589,-14.60186 -8.87656,-10.1098 -29.43244,-13.43855 -37.30669,-6.04113 -4.65874,4.37676 -7.57921,2.91085 -3.4004,-1.70665 4.64189,-5.12939 3.40281,-8.21981 -4.50702,-11.24046 -4.04821,-1.54616 -8.21877,-2.81102 -9.26799,-2.81102 -1.04921,0 -6.20523,4.43656 -11.45766,9.85892 -11.181,11.54289 -10.02182,14.2338 4.29961,9.98076 4.89828,-1.45457 9.25012,-2.30033 9.67111,-1.87951 1.97316,1.97333 -9.60856,9.45288 -15.09639,9.74946 -8.58925,0.4643 -9.02983,0.43285 -13.37429,-0.95195 -3.21191,-1.02378 -5.36721,0.21359 -11.88174,6.82177 -4.37711,4.43983 -10.40553,9.09496 -13.39663,10.3447 -7.08124,2.95862 -8.30469,4.74758 -11.67932,17.0766 -4.96048,18.1229 -7.75981,27.31906 -10.46103,34.36662 -4.70754,12.28212 -3.63324,20.73717 5.05464,39.78126 1.35852,2.97821 2.47011,9.15733 2.47011,13.73153 0,5.91209 1.67279,11.79875 5.78562,20.36016 3.18217,6.62399 8.33304,18.00227 11.44649,25.28507 5.12956,11.99876 6.32019,13.50574 12.68643,16.05815 3.86401,1.54924 11.09681,3.23905 16.07258,3.75541 10.76792,1.11709 14.79294,-1.5721 17.90639,-11.96371 1.30954,-4.37075 5.78665,-10.46189 12.8727,-17.51306 11.36384,-11.30816 12.69606,-14.86167 9.10939,-24.29531 -1.2006,-3.15795 -1.19389,-5.29315 0.0206,-6.75734 1.8869,-2.27335 -0.0275,-4.6022 -5.32442,-6.47776 -2.37611,-0.8413 -5.99371,-11.13255 -4.45443,-12.67166 0.29659,-0.29659 3.35384,1.37346 6.79411,3.71108 7.69864,5.23146 9.34807,5.27905 13.31672,0.38404 4.39137,-5.41618 5.97344,-2.74778 3.52911,5.95248 -4.02931,14.34256 -4.1709,15.5954 -1.6673,14.7608 1.29494,-0.43164 4.35511,-4.20561 6.8003,-8.38631 2.44501,-4.18087 5.54402,-7.60156 6.88638,-7.60156 4.55771,0 3.63307,6.06434 -2.16733,14.2149 -7.91738,11.12499 -15.58251,24.54361 -14.58811,25.53784 1.13977,1.13994 21.50113,-4.27349 27.24379,-7.24311 5.58664,-2.88886 10.04193,-3.1607 10.04193,-0.61276 0,2.06629 -20.74799,11.92058 -25.09846,11.92058 -3.29181,0 -20.67066,9.6254 -22.38384,12.39758 -0.83202,1.34632 3.8934,1.46248 16.71747,0.41086 21.45165,-1.75889 32.44897,-1.50165 34.76425,0.81363 3.17135,3.17135 -7.52475,5.40827 -24.46062,5.11581 -20.76105,-0.35861 -29.24273,1.9034 -36.00196,9.60186 -10.16719,11.57967 -8.71984,26.53963 4.07709,42.14001 4.08774,4.98316 8.70111,12.62166 10.2519,16.97402 1.55097,4.35253 4.02073,10.61997 5.48853,13.92776 l 2.66874,6.01416 9.36078,-10.30999 c 5.14829,-5.67049 10.8205,-13.10141 12.60481,-16.51316 z m 48.09626,3.62568 c 4.01711,-3.14214 4.06729,-3.36277 0.77325,-3.39851 -3.53787,-0.0378 -7.64658,2.89573 -7.64658,5.46051 0,2.21613 2.27748,1.53292 6.87333,-2.062 z M 137.80043,481.57996 c 2.38882,-2.38883 -3.07461,-12.44914 -10.41876,-19.18517 -6.99275,-6.41384 -12.35205,-9.18482 -12.35205,-6.38669 0,3.58289 9.50649,18.45797 14.1197,22.09344 5.93271,4.67523 7.01783,5.11169 8.65111,3.47842 z m 234.97881,-18.97089 c 0,-4.1783 -8.63616,-1.48327 -13.30847,4.1532 -5.83301,7.03674 -4.73053,7.7227 4.71682,2.93543 4.88745,-2.47663 8.59165,-5.53286 8.59165,-7.08863 z m -11.10282,-19.71064 c 3.79098,-2.0058 12.27387,-4.18362 19.1453,-4.91494 16.32844,-1.73809 28.3748,-7.64073 29.96099,-14.68073 0.63888,-2.83525 1.62812,-7.2218 2.19844,-9.74792 0.57048,-2.52612 2.86342,-6.77899 5.09571,-9.45082 4.2838,-5.12716 15.13102,-28.34113 13.84433,-29.62781 -0.41506,-0.41498 -2.87296,1.22362 -5.46197,3.64149 -2.58918,2.41769 -6.8735,5.49677 -9.52093,6.84222 -2.64743,1.34545 -7.67355,4.89673 -11.16915,7.89195 -11.19579,9.59258 -23.59217,19.88814 -35.62994,29.59172 -13.6985,11.04234 -23.13489,20.20362 -23.13489,22.46065 0,2.7727 7.60637,1.73277 14.67211,-2.00581 z m 70.98531,-20.29091 c 7.83787,-8.26569 16.42276,-20.72101 20.21475,-29.32865 2.15305,-4.88727 8.7926,-11.39305 10.19555,-9.9902 0.50514,0.50519 -0.69572,3.65437 -2.66857,6.99807 -4.31428,7.31219 -2.3121,9.38965 5.27033,5.46859 6.10923,-3.15915 11.08904,-2.14963 9.5233,1.93055 -0.57123,1.48859 -0.34932,2.44862 0.49314,2.13348 1.97246,-0.7382 17.37223,-14.98677 17.37223,-16.07361 0,-0.45313 -3.89706,-0.82377 -8.66012,-0.82377 -5.06371,0 -11.30765,-1.34013 -15.0354,-3.22686 -7.6376,-3.8659 -12.18114,-2.66805 -20.74408,5.46928 -10.73476,10.20122 -23.69313,27.78146 -26.42819,35.8547 -4.40443,13.00003 -0.86364,13.53735 10.46706,1.58842 z m 20.89978,-3.61107 c 7.24479,-3.69613 18.88097,-13.21689 18.88097,-15.44866 0,-2.938 -5.65118,-3.27754 -10.84842,-0.65176 -7.18096,3.62774 -12.95167,8.97605 -15.99309,14.82215 -2.96969,5.7083 -1.2609,5.98254 7.96054,1.27827 z M 343.15456,408.71997 c 1.17259,-1.87762 4.64482,-4.50323 7.71617,-5.83477 3.07151,-1.33153 8.11152,-4.7907 11.20022,-7.68712 5.16118,-4.83968 5.52426,-5.86295 4.4857,-12.6373 l -1.12997,-7.37129 4.21249,3.86229 c 4.9524,4.54086 7.21888,3.3803 13.2863,-6.8039 2.08984,-3.50815 6.6862,-8.66452 10.21411,-11.45852 11.53893,-9.13895 18.29387,-30.93649 17.12901,-55.2727 -0.58269,-12.17231 -1.64221,-16.47398 -6.54031,-26.55371 -3.88584,-7.99677 -6.30989,-16.05987 -7.23211,-24.05664 -3.11156,-26.97659 -4.30202,-32.95209 -7.87374,-39.52161 -4.96409,-9.1307 -7.84934,-12.24243 -20.5686,-22.18383 -11.5554,-9.03155 -12.92714,-11.30009 -6.87332,-11.36539 3.2461,-0.0344 2.21218,-1.55818 -6.44371,-9.49498 -9.58863,-8.79201 -10.81002,-9.40614 -17.45721,-8.77861 -8.11516,0.76621 -20.80315,6.44306 -28.07358,12.56066 -4.34136,3.653 -11.91714,18.69424 -10.13334,20.11942 2.4933,1.99206 15.80624,6.13496 17.11492,5.32614 0.88288,-0.54574 1.62228,-3.84614 1.64341,-7.33435 0.0223,-3.6341 1.47295,-8.17668 3.39834,-10.63819 1.84824,-2.3627 3.37738,-5.64901 3.39852,-7.30291 0.0206,-1.65389 1.07825,-3.00708 2.3493,-3.00708 1.27122,0 3.69424,-1.52828 5.38474,-3.3961 4.07828,-4.5065 6.957,-2.53884 3.65609,2.49914 -1.41986,2.16681 -2.10616,4.4149 -1.52536,4.99587 1.7917,1.79153 8.27651,1.16726 10.44968,-1.00591 3.80731,-3.80731 2.33333,1.84514 -2.23383,8.56622 -6.21915,9.15252 -5.83785,19.07812 1.16366,30.28954 6.05522,9.69586 11.65045,16.4745 13.5987,16.4745 0.70156,0 2.95103,-5.41274 4.99842,-12.02832 2.04756,-6.61557 4.3027,-12.02831 5.01168,-12.02831 3.14644,0 3.15761,2.66255 0.0447,10.56103 -1.83569,4.65737 -3.33769,10.69489 -3.33769,13.41673 0,2.72201 -1.5465,8.55677 -3.43666,12.96635 -1.89017,4.40959 -3.43663,9.88642 -3.43663,12.17077 0,4.26799 3.13008,5.49093 6.19902,2.42199 2.32507,-2.32525 13.50522,-3.01172 13.77861,-0.84611 0.11856,0.94509 -2.68146,2.57406 -6.22362,3.62001 -10.48715,3.09643 -15.57905,7.63953 -14.49547,12.93302 0.90505,4.42127 0.75693,4.50598 -6.469,3.69871 -8.83308,-0.98667 -17.68713,4.46285 -15.98151,9.83658 0.76483,2.40962 -0.4026,3.56726 -5.19211,5.14795 -5.27407,1.7405 -6.10162,2.70689 -5.65107,6.59891 0.47099,4.06952 1.1743,4.51079 6.54185,4.10423 10.41996,-0.78923 40.23968,-0.29899 43.61482,0.71689 6.83106,2.05616 -1.33652,3.66314 -14.21506,2.79676 -22.7328,-1.52949 -34.83157,4.42607 -42.51595,20.92824 -6.45027,13.85181 -4.81579,24.54687 5.87669,38.4547 5.98925,7.79023 14.07743,28.02066 14.88161,37.22215 0.70795,8.09918 0.60107,7.73249 2.25445,7.73249 0.71775,0 2.26442,-1.53619 3.43701,-3.41364 z m 101.26076,-27.94591 c 6.11203,-6.74805 15.8781,-22.43229 14.92654,-23.97192 -0.50378,-0.81517 -4.14152,0.28215 -8.08389,2.43849 -7.08203,3.87346 -11.66646,10.58474 -14.12266,20.67427 -1.45496,5.9767 2.2489,6.41384 7.28001,0.85916 z m -353.399718,-3.9781 c 0.92171,-2.42423 1.67571,-11.78827 1.67571,-20.80917 0,-14.9127 -0.70572,-18.49268 -7.77716,-39.44532 -7.63936,-22.63489 -10.08025,-29.00336 -16.37931,-42.73352 -6.951848,-15.15276 -11.581204,-25.98116 -12.772523,-29.87542 -0.690082,-2.25531 -3.855591,-7.50807 -7.034504,-11.67279 -3.179084,-4.16472 -6.477421,-8.8183 -7.329713,-10.34126 -2.507045,-4.47969 -6.752354,-1.3659 -11.592377,8.50299 l -4.481751,9.13791 5.232662,10.21892 c 4.3448,8.48529 5.438002,9.64138 6.444085,6.81438 3.897003,-10.95213 5.971888,-14.57385 8.348855,-14.57385 3.577222,0 3.329095,5.52598 -0.77153,17.18331 -1.828477,5.19795 -3.349715,11.05437 -3.380473,13.0143 -0.03093,1.95975 -2.033473,10.07887 -4.450134,18.04247 -3.597154,11.85271 -4.193415,16.44701 -3.288027,25.3294 1.06674,10.46533 1.547701,11.34975 13.550759,24.91581 18.905761,21.36796 38.052271,40.69953 40.309641,40.69953 1.11107,0 2.77407,-1.98347 3.69579,-4.40769 z m 390.931038,-0.66105 c -0.63248,-1.02326 -1.95235,-1.3647 -2.93302,-0.75864 -1.15449,0.71345 -0.97874,1.59908 0.49856,2.51203 2.75751,1.70424 4.01268,0.80023 2.43446,-1.75339 z m -6.3239,-24.31094 c 4.79299,-1.67091 7.55283,-5.00293 4.12265,-4.97732 -3.87631,0.0292 -14.17623,3.82586 -14.17623,5.22613 0,2.15513 3.39896,2.07093 10.05358,-0.24881 z M 2.2323551,343.79953 c 0.448485,-0.72565 -4.402192,-6.91164 -10.779263,-13.74665 C -18.863939,318.99456 -20.835896,317.6254 -26.444185,317.6254 c -6.708709,0 -7.918759,-1.67452 -3.725169,-5.155 1.41762,-1.17654 2.577496,-2.84899 2.577496,-3.71658 0,-2.88095 -7.562546,-12.41236 -22.742116,-28.66262 -8.25537,-8.83772 -17.14774,-19.4967 -19.7608,-23.68685 -2.61307,-4.18998 -6.87762,-10.40707 -9.4766,-13.81572 -2.59898,-3.40848 -4.72541,-6.86422 -4.72541,-7.6794 0,-0.81517 -0.81707,-1.48206 -1.81576,-1.48206 -1.01777,0 -0.64008,1.67847 0.85916,3.81899 1.47124,2.10049 2.6995,5.77342 2.72957,8.16208 0.0292,2.38865 1.17328,5.82136 2.54056,7.62801 1.386,1.83157 2.05649,4.99536 1.51556,7.15066 -1.70114,6.77831 6.19923,28.37034 13.15727,35.95935 3.46604,3.78033 8.64767,10.37098 11.5147,14.64568 2.86704,4.27486 7.18658,8.82878 9.59912,10.11994 2.41236,1.29098 6.85236,5.41618 9.86648,9.16695 3.093,3.84889 9.310092,8.60282 14.271429,10.91295 8.522922,3.96848 20.63114214,5.4935 22.2910501,2.80775 z M 303.81165,335.05976 c 4.21318,-4.51045 12.2627,-26.3568 12.2627,-33.28133 0,-4.66905 -15.83339,-21.84686 -20.19039,-21.90494 -2.12643,-0.0275 -3.86624,-0.66998 -3.86624,-1.42604 0,-2.39364 4.01092,-5.49866 7.10289,-5.49866 1.94773,0 3.16706,-1.58997 3.52258,-4.59293 0.96364,-8.13956 4.41662,-6.44718 5.68664,2.78713 1.7417,12.66307 3.66658,11.98846 4.94175,-1.7319 0.83631,-8.9989 0.48148,-13.26414 -1.40766,-16.91714 -3.30864,-6.39838 -1.42037,-8.10675 2.89591,-2.6196 2.70431,3.43804 3.87483,3.89494 5.82755,2.27421 5.27751,-4.37985 6.18771,5.42993 1.01553,10.94474 -3.30899,3.52808 -3.64475,4.91185 -2.14791,8.84906 0.97584,2.56667 1.77434,6.54959 1.77434,8.85078 0,4.87181 2.03623,5.37271 5.37426,1.32209 1.29699,-1.57417 6.25799,-5.36189 11.02447,-8.41742 10.57701,-6.78036 12.06062,-8.55506 13.5535,-16.214 3.20297,-16.43086 3.0454,-17.68352 -3.29352,-26.20455 -7.08537,-9.52419 -12.82184,-10.80126 -17.3658,-3.86625 -3.85284,5.88013 -6.38154,5.44454 -4.99673,-0.86054 0.8449,-3.84717 0.44333,-5.42099 -1.58173,-6.19802 -3.17376,-1.21795 -3.62138,-5.24022 -0.6918,-6.21675 3.27806,-1.09268 -0.15808,-4.76716 -4.45941,-4.76716 -2.17369,0 -8.33133,-2.20892 -13.68359,-4.90859 l -9.73125,-4.90858 -5.09176,5.79919 c -7.18932,8.1882 -7.92769,13.11259 -4.33792,28.93378 3.61519,15.93374 4.0111,38.30813 0.95075,53.74544 -1.61386,8.14163 -1.66988,12.64795 -0.22802,18.37377 1.05058,4.1728 1.91026,12.2072 1.91026,17.85432 0,5.6473 0.46945,11.49083 1.04303,12.98577 1.67434,4.36319 9.14496,3.21208 14.18757,-2.18588 z M 8.4930941,327.90651 c 0,-0.96106 -3.514502,-5.11478 -7.81015796,-9.23087 -4.90927204,-4.70393 -8.47721504,-9.95859 -9.60581404,-14.14719 -0.987525,-3.6652 -4.0446081,-10.20981 -6.7935941,-14.54378 -4.063338,-6.40611 -5.177847,-10.4234 -5.958657,-21.47914 -1.835006,-25.98031 -5.441783,-32.55018 -21.474155,-39.11523 -13.44989,-5.50743 -12.80913,-5.90831 -12.66943,7.92408 0.15465,15.34418 2.06836,26.42948 5.63132,32.62733 2.87992,5.00962 4.54137,5.80624 6.27139,3.00708 2.20067,-3.56073 6.01485,-1.69118 6.13496,3.00708 0.1897,7.42113 1.81249,10.09124 13.234412,21.77555 5.885799,6.02103 10.701422,11.58292 10.701422,12.35961 0,0.77669 4.0332671,5.49608 8.9626431,10.48749 8.461578,8.56811 13.375661,11.26022 13.375661,7.32799 z m 16.6568129,-25.8839 c 2.099801,-4.25717 6.914908,-18.37652 8.557461,-25.09296 0.934944,-3.82278 -5.294694,-19.09135 -10.387827,-25.46 -2.688501,-3.36192 -2.916867,-3.26139 -10.505703,4.6254 -7.0095879,7.28487 -7.7563749,8.85852 -7.7477829,16.32415 0.01718,11.56643 2.957763,20.9157 8.9839499,28.52773 5.657604,7.1462 7.994019,7.37267 11.099902,1.07568 z M 435.86726,290.41734 c 5.48572,-4.6974 10.80026,-14.67833 10.80026,-20.28335 0,-1.60887 -2.41581,-8.16637 -5.36845,-14.57231 -4.84475,-10.51068 -6.07413,-11.88741 -12.60275,-14.11179 -10.00791,-3.4102 -21.55045,-10.97223 -21.55045,-14.11884 0,-3.20142 4.39446,-1.20953 9.30682,4.21867 3.82896,4.23088 7.87649,4.71029 7.87649,0.93289 0,-3.94289 -4.66304,-12.24569 -7.48574,-13.32875 -1.54358,-0.59231 -2.90295,-4.77782 -3.6542,-11.25043 -0.75847,-6.5355 -2.32611,-11.32965 -4.2838,-13.10142 -2.8801,-2.60636 -3.34061,-2.47216 -6.85769,1.99911 -3.02443,3.84494 -3.60059,6.32689 -2.91291,12.54742 4.63519,41.92763 3.81847,38.69974 16.74444,66.17774 1.77831,3.78033 4.36766,9.77301 5.75401,13.31707 3.04333,7.77992 6.5355,8.1662 14.23397,1.57399 z M 111.13932,273.06649 c 5.37889,-9.42057 8.64131,-19.86872 9.96271,-31.90683 0.90625,-8.25641 0.41429,-12.19242 -2.46959,-19.7608 -1.98055,-5.19796 -3.60145,-11.20198 -3.60196,-13.34233 -5.2e-4,-2.52698 -1.90958,-5.05224 -5.44471,-7.20221 -6.07636,-3.6951 -10.486628,-3.34164 -25.045358,2.0077 -9.98883,3.67018 -15.90573,2.85208 -15.90573,-2.19895 0,-2.56977 1.20764,-3.32085 5.33885,-3.32085 4.429,0 5.11977,-0.51241 4.05286,-3.00708 -2.96687,-6.93742 -2.88766,-12.63832 0.22355,-16.07619 2.93801,-3.24661 3.29714,-3.28407 5.29435,-0.55261 1.37123,1.87521 1.77281,5.62787 1.11537,10.42374 -1.14509,8.35452 0.2837,9.28517 6.51213,4.2417 3.76573,-3.04935 3.858,-3.55506 1.47914,-8.10984 -1.39545,-2.67183 -5.54144,-7.88559 -9.21334,-11.58636 -11.23617,-11.32398 -23.392505,-28.74957 -23.420857,-33.57293 -0.0378,-6.55887 -2.351364,-9.34308 -6.632414,-7.98422 -4.390508,1.39339 -4.409066,1.25593 -0.805039,-5.96845 2.393464,-4.79793 2.506702,-6.54788 0.711733,-11.00351 -3.58925,-8.90955 -4.036531,-11.31246 -2.10633,-11.31246 1.01897,0 2.696233,3.13286 3.727232,6.96182 1.030999,3.82896 2.931473,7.36734 4.223142,7.86308 3.452814,1.32483 11.099213,-4.30236 12.289163,-9.04392 1.35559,-5.40123 -1.68328,-8.787373 -9.863051,-10.989933 -7.985428,-2.15014 -8.562272,-4.41301 -1.51952,-5.95986 5.497111,-1.20747 5.443161,-0.75108 1.72864,-14.606153 l -1.151625,-4.295828 -3.046429,5.849541 c -1.675545,3.21706 -5.173723,8.78617 -7.773902,12.37559 -7.682658,10.605543 -9.354766,19.473503 -7.168018,38.015503 1.039419,8.8128 3.766238,21.41487 6.059695,28.00467 2.293285,6.58963 4.694824,15.52615 5.336449,19.8591 2.122826,14.33535 4.768712,15.12612 10.837001,3.23905 3.0545,-5.98357 7.98199,-10.05653 9.87542,-8.16293 0.61275,0.61276 -1.3946,4.23586 -4.46079,8.05124 -7.315623,9.10337 -8.927588,21.55904 -3.73411,28.85267 1.91268,2.68592 5.49231,9.12176 7.95502,14.30184 2.46271,5.18025 8.26517,13.84339 12.89436,19.25167 6.05917,7.07901 8.75317,11.89205 9.61801,17.18331 1.14355,6.9967 7.247918,20.25259 9.313528,20.22441 0.53474,0 2.70121,-3.04127 4.81442,-6.74239 z M 7.4253241,243.0335 c 4.3676529,-5.11238 7.9410949,-10.86621 7.9410949,-12.7861 0,-3.99529 2.672692,-6.32002 4.278471,-3.72156 1.845831,2.98646 3.901642,1.93759 5.838717,-2.97907 1.023782,-2.59898 2.839198,-6.10059 4.034298,-7.78146 1.78672,-2.51306 1.714894,-3.359 -0.404839,-4.76184 -3.067737,-2.03038 -9.691559,-1.03049 -24.3774459,3.6798 -11.639459,3.73308 -16.8624991,8.20108 -16.8624991,14.42453 0,4.82095 7.9869751,23.22101 10.0795591,23.22101 0.842326,0 5.104818,-4.18293 9.472644,-9.29531 z m 161.4375459,3.51485 c 8.64956,-3.61399 14.36988,-11.60406 15.8016,-22.07093 0.68406,-5.00103 1.96697,-11.02585 2.85088,-13.38855 2.22902,-5.95814 13.47584,-17.18331 17.2163,-17.18331 4.54705,0 3.75559,4.29909 -1.20798,6.56076 -2.51994,1.14801 -4.29583,3.39319 -4.29583,5.43078 0,1.91027 -1.5465,5.01994 -3.43666,6.9101 -3.71761,3.71761 -4.70153,12.02832 -1.42399,12.02832 3.54939,0 8.29731,-5.56035 8.29731,-9.71716 0,-2.84316 0.98203,-4.02949 3.33528,-4.02949 3.86848,0 6.11932,-2.70053 3.56605,-4.27847 -3.26792,-2.01973 -1.98811,-6.33996 1.54581,-5.21823 5.25621,1.66833 5.56362,-1.52313 0.97739,-10.14847 -4.23637,-7.96772 -5.65864,-16.43978 -2.75964,-16.43978 0.83047,0 2.53505,2.51306 3.78823,5.58457 3.08458,7.56083 8.71091,17.06423 9.58503,16.18995 0.39074,-0.39075 -0.0378,-2.55018 -0.95316,-4.79879 -0.91519,-2.24861 -2.10376,-6.15523 -2.64142,-8.68152 -0.53767,-2.52629 -3.73823,-8.2095 -7.112,-12.62974 -3.58822,-4.70066 -6.19355,-10.11495 -6.27689,-13.04385 -0.16668,-5.87171 1.68207,-8.41604 3.72001,-5.11856 1.86559,3.01842 4.62145,1.23462 5.68665,-3.68118 0.46395,-2.14036 1.41212,-5.24486 2.10736,-6.89876 2.32335,-5.52752 -3.59561,-3.29833 -9.96649,3.75352 -4.09135,4.52849 -7.28642,10.71775 -9.67747,18.74683 -2.38814,8.0191 -5.85487,14.73881 -10.47443,20.30311 -4.82645,5.81346 -6.63706,9.40803 -6.01537,11.94206 0.56551,2.30411 -0.36703,4.76218 -2.55928,6.74616 -1.89686,1.71662 -4.64138,7.22352 -6.09904,12.23761 -1.45766,5.01427 -3.44835,9.60994 -4.42384,10.2129 -3.02959,1.8723 -11.74772,16.65802 -11.74772,19.92371 0,3.76572 4.71321,4.0489 12.59331,0.75641 z m 81.8893,-11.83243 c -0.0447,-3.82002 -11.00454,-14.88435 -15.86896,-16.02155 -3.98395,-0.9315 -4.72541,-0.549 -4.72541,2.43728 0,5.46224 3.4401,11.757 7.49897,13.72243 5.20551,2.52061 13.12616,2.43693 13.0954,-0.13747 z m -25.77566,-11.16915 c -0.0172,-2.59898 -0.69111,-5.7748 -1.50371,-7.05719 -1.91061,-3.01515 -8.20469,-1.09475 -10.50622,3.20572 -1.36401,2.54863 -0.92635,3.77603 2.10255,5.89766 6.07052,4.25201 9.93797,3.45333 9.90738,-2.04619 z m -285.216664,-0.24572 c 0,-0.84405 -1.15987,-1.97952 -2.57749,-2.52354 -1.57004,-0.60262 -2.5775,0 -2.5775,1.53447 0,1.38789 1.15988,2.52354 2.5775,2.52354 1.41762,0 2.57749,-0.6906 2.57749,-1.53447 z M 263.18859,210.05942 c -0.52495,-11.16795 -5.47718,-33.33717 -7.4469,-33.33717 -0.68579,0 -2.92564,2.71616 -4.97732,6.03581 -2.05169,3.31981 -5.20775,6.82658 -7.01354,7.79297 -1.80563,0.96639 -3.28305,2.97186 -3.28305,4.45649 0,4.82078 18.29714,26.89876 21.39718,25.81879 1.05643,-0.36807 1.60337,-4.81683 1.32363,-10.76689 z m 179.78938,2.3182 c 0.89485,-3.07152 3.93704,-11.08564 6.76043,-17.80913 3.28275,-7.81738 4.81148,-13.90869 4.24043,-16.89601 -0.52824,-2.76324 -5.71325,-9.41576 -12.69381,-16.28651 -6.49045,-6.38824 -11.80085,-12.4646 -11.80085,-13.50299 0,-4.41663 3.79174,-3.56863 9.48086,2.12059 8.59908,8.59905 10.60012,7.57286 3.98405,-2.04326 -10.01051,-14.5498 -27.24214,-29.63692 -33.87009,-29.65496 -1.73861,0 -2.0742,1.43566 -1.27088,5.45295 1.37192,6.85958 2.09035,7.55756 5.1574,5.01203 4.79054,-3.9757 4.83212,1.61574 0.14606,19.63331 -2.56083,9.84534 -4.18122,19.13825 -3.60076,20.65073 1.45456,3.79012 7.35325,1.79342 14.36353,-4.86219 8.38353,-7.95931 8.74908,-4.24926 0.5466,5.54763 -7.61633,9.09702 -7.61513,9.02227 -0.32597,18.72878 l 4.30459,5.73235 2.69039,-5.60743 c 2.77105,-5.77514 6.98643,-8.68479 6.98643,-4.82233 0,1.19923 -1.43488,3.77672 -3.18863,5.72772 -2.69064,2.9935 -3.0146,5.24159 -2.07428,14.39532 1.00818,9.81424 3.16761,13.95095 7.33006,14.04168 0.66437,0.0172 1.94011,-2.48677 2.83495,-5.55828 z m -108.95204,-4.24617 c -2.74916,-4.19565 -2.63919,-12.50567 0.26548,-20.07543 1.60372,-4.17916 -4.46594,-5.70469 -7.29638,-1.83381 -4.19032,5.73081 -1.96731,17.46014 4.95378,26.13651 3.15279,3.9525 4.98866,0.21633 2.07712,-4.22727 z m -100.75469,-0.0292 c -0.71895,-3.73325 -6.55011,-5.13764 -6.55011,-1.57777 0,2.36098 2.23744,4.09633 5.71053,4.42934 0.77824,0.0739 1.15593,-1.2085 0.83958,-2.85157 z m -88.94459,-18.16913 c 6.53361,-9.78435 6.9326,-11.06605 5.86397,-18.83686 -0.68527,-4.98179 -2.7641,-10.19623 -5.16461,-12.9545 l -4.0178,-4.6163 -3.43976,3.43667 c -1.89188,1.89016 -6.19063,8.03062 -9.55272,13.64561 -8.5334,14.25166 -7.99883,26.58499 1.3025,30.04295 5.55708,2.06595 7.30565,0.81741 15.00842,-10.71757 z m -126.925555,6.23943 c 5.969136,-2.53368 11.057458,-4.73589 11.307476,-4.89363 1.452849,-0.91605 -9.849816,-18.33356 -16.173103,-24.92285 -4.4064879,-4.5919 -9.0851599,-11.94687 -11.3978619,-17.91755 -2.157708,-5.57049 -4.746546,-10.40261 -5.752972,-10.73803 -2.439687,-0.81328 -1.69857,36.03753 0.888205,44.1661 1.05076,3.3016 1.910269,8.90765 1.910269,12.4579 0,5.69334 0.493676,6.45508 4.18259,6.45508 2.300501,0 9.0664299,-2.07317 15.0353969,-4.60702 z m 376.702635,-2.8404 c -0.6344,-2.04705 -2.744,-7.39467 -4.68778,-11.88381 -3.17839,-7.34071 -4.09667,-8.16207 -9.12485,-8.16207 -6.73362,0 -8.38082,2.08279 -5.42219,6.8558 1.84119,2.97031 1.77984,3.82483 -0.37133,5.16616 -2.12249,1.32329 -1.51609,2.4976 3.43666,6.65338 l 6.01416,5.04657 1.03065,-7.13555 c 0.56688,-3.92449 1.14682,-6.26331 1.28875,-5.19743 0.14262,1.06588 1.44134,4.77009 2.88766,8.23132 2.74159,6.56162 6.96284,6.92453 4.94827,0.42546 z m -106.53254,-7.58798 c 5.35295,-8.22496 10.81191,-26.81971 12.81738,-43.6597 1.17259,-9.84741 3.62258,-17.63214 9.73417,-30.92996 5.44866,-11.855623 8.54045,-21.202313 9.28913,-28.080623 0.66087,-6.070517 2.84349,-13.265513 5.30809,-17.497762 4.49103,-7.71187 3.98911,-10.501409 -1.37312,-7.631624 -5.00635,2.679393 -15.75177,24.208196 -14.72627,29.504606 0.57152,2.95089 -1.33806,8.59818 -5.86586,17.347923 -5.26445,10.17321 -6.39151,13.84167 -5.22321,16.99979 1.92934,5.21566 0.055,13.68617 -3.02976,13.68617 -1.74806,0 -2.11853,-1.39735 -1.36711,-5.155 0.60657,-3.03233 0.3093,-5.15499 -0.72153,-5.15499 -0.96398,0 -2.10358,-3.28631 -2.53264,-7.30291 -0.59369,-5.56 0.0172,-8.18527 2.53797,-11.00024 4.17881,-4.65684 5.99784,-16.790493 3.0497,-20.342803 -5.24366,-6.3183 -14.31972,-0.66568 -12.6153,7.8569 0.7595,3.79682 0.11512,6.166053 -2.43625,8.954733 -1.90787,2.08554 -4.03636,5.65727 -4.72988,7.93732 -1.78329,5.86191 -1.44873,25.96175 0.51722,31.08031 0.90762,2.36271 1.26864,8.25487 0.80228,13.09386 -0.52941,5.49385 -0.12887,9.24256 1.06778,9.98178 1.13066,0.69885 1.91542,6.42192 1.91542,13.96986 0,7.25583 0.7327,12.7861 1.69393,12.7861 0.93168,0 3.58117,-2.89968 5.88786,-6.44374 z m -44.02261,-4.44584 c 4.44859,-4.09907 9.44154,-7.94109 11.09544,-8.5377 4.83418,-1.74393 4.60942,-13.08766 -0.73081,-36.88243 -1.96629,-8.76091 -4.13396,-16.27448 -4.817,-16.69668 -0.68321,-0.42219 -3.76074,1.09046 -6.83896,3.36158 -4.50976,3.3272 -6.71592,7.38555 -11.36057,20.89782 -6.31315,18.36724 -7.76325,26.57588 -4.8725,27.58111 1.03426,0.35982 3.73926,-2.84985 6.01124,-7.13262 4.0745,-7.68043 9.06059,-10.63046 8.07822,-4.77937 -0.33714,2.00753 0.78012,3.18957 3.36122,3.55609 5.75504,0.81741 4.88556,5.46515 -1.0224,5.46515 -2.68868,0 -6.10816,1.35318 -7.59864,3.00708 -5.16633,5.73287 -6.00247,17.61289 -1.2396,17.61289 1.01519,0 5.4856,-3.35384 9.93436,-7.45292 z m 157.52866,5.82274 c 1.73018,-2.7995 -2.82099,-17.36202 -6.9656,-22.28761 -2.17541,-2.58523 -5.85453,-9.66682 -8.17582,-15.73665 -2.32129,-6.07 -6.33549,-15.58664 -8.92037,-21.14802 -3.75456,-8.07787 -5.01598,-9.5467 -6.27174,-7.3029 -2.38642,4.26438 -4.83779,3.36174 -4.83779,-1.7814 0,-2.52457 -1.14767,-5.8583 -2.55052,-7.40841 -2.09499,-2.31476 -2.18589,-3.78428 -0.50931,-8.22634 1.81078,-4.797063 1.48086,-6.580523 -2.92031,-15.789053 -2.72884,-5.7095 -5.93525,-10.380956 -7.12537,-10.380956 -1.18994,0 -6.96611,4.446186 -12.83593,9.880406 -7.71238,7.14018 -12.03467,12.91669 -15.58458,20.828573 -5.25173,11.70476 -6.88243,20.91381 -3.89236,21.98193 3.55815,1.27087 13.61778,-7.23865 15.54849,-13.15263 2.36047,-7.23005 5.81329,-8.83651 5.81329,-2.70465 0,3.9855 0.49797,4.34686 4.57832,3.32274 3.84562,-0.96519 4.39772,-0.67823 3.44955,1.79256 -0.75349,1.96354 0.60296,4.76287 4.07915,8.41914 5.06783,5.33026 5.27592,5.38731 7.7364,2.11921 2.37697,-3.15726 2.70294,-3.18406 5.44162,-0.44539 2.7385,2.73851 2.56942,3.26758 -2.82168,8.82982 -7.81253,8.06052 -6.34559,11.2982 5.11926,11.2982 12.05495,0 10.4734,3.9568 -2.13125,5.33181 -5.22321,0.56997 -10.38023,1.58206 -11.45986,2.24946 -3.17823,1.96423 -2.26992,6.01485 2.39497,10.67978 3.79494,3.79493 5.29401,4.20767 11.59874,3.19351 10.20276,-1.64135 14.92027,-4.96116 13.69699,-9.6388 -0.67599,-2.58506 -0.36154,-3.37704 1.0054,-2.53231 1.09388,0.67617 1.98896,2.26081 1.98896,3.52155 0,1.26074 1.15988,2.7373 2.5775,3.28133 1.41762,0.54402 2.5775,2.72733 2.5775,4.85187 0,4.88436 5.1641,18.58341 7.00546,18.58341 0.76088,0 1.83672,-0.73355 2.39089,-1.63018 z m -59.11228,-86.0047 c 0,-1.417623 1.12895,-4.078463 2.5165,-5.912953 3.21018,-4.24411 3.17375,-1.45285 -0.055,4.19462 -1.42415,2.491403 -2.45824,3.213103 -2.46185,1.718333 z m -222.66134,67.04068 c 5.59867,-6.60148 11.35078,-13.93326 12.78267,-16.29304 2.48556,-4.0965 2.32267,-4.5833 -3.60077,-10.76534 -3.41209,-3.56107 -7.46872,-8.98791 -9.01488,-12.05942 -4.67437,-9.2869 -8.48065,-6.46815 -10.26874,7.60499 -1.3293,10.46085 0.18919,12.09395 7.65533,8.23304 2.95089,-1.52588 5.77549,-2.36408 6.2769,-1.86267 2.03484,2.03501 -1.52949,6.51505 -7.00289,8.80197 -5.78992,2.41924 -7.90415,6.22397 -7.95141,14.30992 -0.0447,7.66427 -4.31077,2.72802 -4.85033,-5.61258 -0.51051,-7.88852 -0.71104,-8.17376 -5.154988,-7.3292 -2.5433,0.48319 -6.17053,1.36882 -8.06069,1.96783 -2.85484,0.9047 -3.98498,-0.25706 -6.67589,-6.8625 -3.22978,-7.92855 -3.22857,-7.96206 0.42958,-11.62038 l 3.66881,-3.66864 0,6.44993 c 0,7.31081 2.39535,9.0245 9.06798,6.48756 3.21448,-1.22208 5.027658,-3.65163 6.327238,-8.47773 3.02684,-11.24098 0.91123,-13.36312 -14.361988,-14.40735 -4.60753,-0.31497 -7.29019,-1.53103 -8.59165,-3.8946 -1.0408,-1.89016 -2.0608,-3.7341 -2.26682,-4.09753 -0.20603,-0.36343 -2.61565,0.26737 -5.35484,1.40199 -6.26521,2.59519 -10.290741,9.52024 -7.81531,13.44473 3.06017,4.8512 5.79301,4.38175 6.90666,-1.1865 2.0333,-10.16651 4.50185,-7.88147 3.23922,2.99848 -1.11829,9.63452 -0.78854,11.21813 4.33913,20.83872 3.78033,7.09258 8.89494,13.15159 16.04389,19.00629 5.772038,4.72696 11.295448,8.59458 12.274548,8.59458 0.97894,0 6.36075,-5.40123 11.95924,-12.00255 z m 210.44315,-9.7364 c 9.60117,-2.67304 18.97209,-7.08863 24.88143,-11.72435 3.63871,-2.85449 3.95746,-1.7252 -5.22665,-18.51622 -3.07735,-5.62599 -7.23022,-6.02258 -12.4213,-1.18633 -4.59859,4.28431 -3.4779,6.77091 3.05193,6.77091 3.82449,0 5.02887,0.9193 5.68218,4.33689 0.45605,2.38522 0.2983,4.66493 -0.35054,5.06581 -1.67658,1.03616 -12.10616,-5.56223 -12.10616,-7.65911 0,-0.959 -2.35669,-1.74359 -5.23696,-1.74359 -6.99429,0 -12.82321,6.51333 -15.38473,17.1907 -2.32112,9.6754 -1.18702,12.80208 4.06196,11.19802 2.01973,-0.61723 7.89178,-2.2969 13.04884,-3.73273 z M 221.51356,150.0888 c 0,-2.84573 -0.28645,-2.9935 -1.66575,-0.85916 -0.91604,1.41762 -1.66558,4.12399 -1.66558,6.01416 0,2.84572 0.28628,2.9935 1.66558,0.85916 0.91621,-1.41762 1.66575,-4.12399 1.66575,-6.01416 z m 184.61987,-4.65547 c 0.12543,-6.03633 -0.53406,-7.66977 -3.65025,-9.03945 -2.76446,-1.21521 -3.55094,-2.67768 -2.87924,-5.35432 0.62444,-2.48746 -0.0326,-4.04994 -2.02694,-4.81494 -4.53468,-1.74015 -4.93625,-0.15121 -2.82735,11.18994 3.531,18.98739 11.04544,24.28054 11.38378,8.01877 z m -236.13578,6.39614 c 2.60757,-3.14179 1.07998,-10.02955 -3.71881,-16.76885 -3.29868,-4.63262 -3.69699,-4.75754 -6.64908,-2.08588 -1.72709,1.56299 -3.94219,5.14245 -4.9225,7.95433 -1.54753,4.43948 -1.23308,5.66138 2.38951,9.28397 4.73709,4.73709 9.78607,5.36961 12.90088,1.61643 z M 32.196955,125.17524 C 31.313904,122.81373 30.33858,115.4677 30.029452,108.85109 29.444016,96.322567 28.070554,90.806377 25.536703,90.806377 c -3.259158,0 -7.330227,11.825553 -8.08698,23.490793 l -0.799367,12.32146 7.520102,8.92948 7.520104,8.92931 1.055915,-7.5043 c 0.580624,-4.12743 0.333356,-9.43638 -0.549522,-11.79788 z m 121.342355,6.73929 c 5.33026,-6.33463 5.59557,-8.45986 1.05608,-8.45986 -2.01886,0 -4.45408,2.05272 -6.01415,5.06959 -5.08437,9.83229 -2.1505,11.83844 4.95807,3.39027 z m 50.32149,-0.17785 c -3.08646,-1.1255 -4.61681,-2.77476 -4.25819,-4.58983 0.59402,-3.0076 8.65214,-3.45557 19.59653,-1.0896 4.50289,0.97327 7.06698,0 15.95041,-6.06536 8.90542,-6.07894 10.40037,-7.80878 9.4223,-10.90247 -1.96767,-6.22311 -6.11159,-11.471063 -11.09149,-14.046323 -4.14633,-2.14413 -5.38542,-2.13417 -9.62523,0.0773 -2.67664,1.39597 -7.37954,2.54279 -10.45106,2.54863 -3.07152,0 -5.58458,0.837 -5.58458,1.84703 0,1.247343 4.33707,1.458183 13.52035,0.657093 9.67609,-0.844043 13.87793,-0.600903 14.77782,0.85539 0.6918,1.11915 0.75847,2.53402 0.14777,3.14403 -0.61,0.61018 -10.79335,1.17981 -22.62956,1.26607 -22.46752,0.16324 -24.62935,0.88098 -24.69224,8.19077 -0.0395,4.63949 4.87318,15.5624 8.09076,17.98731 1.56729,1.18136 4.82851,2.08692 7.24689,2.01217 l 4.39686,-0.13575 -4.81785,-1.75665 z m -59.04099,-7.56787 c 1.73568,-2.38315 2.7904,-5.28559 2.34346,-6.4501 -1.24717,-3.25022 -13.61881,-11.2817 -18.21328,-11.82384 -5.16926,-0.61 -6.96405,3.7073 -2.07299,4.98626 2.47937,0.64832 3.6176,2.31837 3.6176,5.30775 0,4.11678 0.17647,4.20201 3.14248,1.51797 4.62592,-4.18654 5.44917,-3.57773 5.44917,4.02949 0,7.93594 1.31762,8.49491 5.73356,2.43247 z m 279.35712,-10.62616 c -8.71005,-9.39721 -12.80809,-15.810023 -17.95106,-28.090933 -4.62781,-11.050931 -7.16613,-15.26531 -9.19376,-15.26531 -2.60653,0 -6.12327,19.03567 -5.84009,31.611623 0.36154,16.04938 2.66135,19.94673 6.43756,10.90917 3.54251,-8.47825 5.59213,-9.25889 10.94474,-4.16833 5.27579,5.01753 19.53742,13.42446 20.7375,12.22421 0.44453,-0.44454 -1.86628,-3.69373 -5.13489,-7.22043 z m -323.84025,4.08361 c 4.67747,-1.23204 8.8013,-3.13062 9.16404,-4.21919 1.17018,-3.5102 -4.92629,-4.26627 -11.009698,-1.36538 -3.254,1.55182 -8.01653,2.84865 -10.58337,2.88215 l -4.66716,0.0602 4.29583,2.45566 c 2.36271,1.35061 4.29583,2.44897 4.29583,2.44072 0,-0.0172 3.82707,-1.02292 8.504528,-2.25497 z m 59.34463,-10.92532 c -0.0533,-9.933323 -8.87312,-29.646536 -16.33806,-36.514533 l -4.6694,-4.295828 0.77016,15.277508 0.76998,15.27734 7.9277,7.490553 c 9.22211,8.71331 11.57399,9.27675 11.53962,2.76496 z M 384.1491,98.968457 c -0.77291,-8.35728 -2.84951,-16.09029 -6.30903,-23.493027 -6.04216,-12.929582 -4.39532,-17.377998 2.54898,-6.884665 4.86184,7.346724 6.70664,7.319746 8.37377,-0.122002 0.70984,-3.168774 -0.38542,-5.873599 -4.17486,-10.309986 l -5.13712,-6.014159 -3.76538,4.314901 c -2.07093,2.373187 -6.6575,6.518833 -10.19228,9.212488 -3.53496,2.693484 -6.03255,5.535776 -5.55056,6.315726 1.82899,2.95931 11.19562,6.449069 14.78813,5.509657 3.5829,-0.937006 3.70077,-0.594199 2.70019,7.855177 -0.67651,5.71156 -0.1409,11.88243 1.51333,17.454813 3.88223,13.07289 6.5843,11.08031 5.20483,-3.838243 z m -279.78877,-7.94299 c 0.34092,-1.02309 -1.37175,-8.18819 -3.80611,-15.922571 -2.434348,-7.73438 -4.426238,-15.097601 -4.426238,-16.362808 0,-3.956801 -2.93285,-2.514778 -4.93196,2.425081 -2.1132,5.221492 -3.17461,31.410578 -1.39013,34.297888 1.35525,2.19293 13.587358,-1.53653 14.554438,-4.43759 z m 91.86043,4.84552 c 6.01399,-1.67004 6.44374,-2.22885 6.44374,-8.3748 0,-5.35673 -1.28205,-7.90656 -6.87143,-13.665887 -6.78655,-6.993092 -6.63551,-8.912468 0.40466,-5.144683 2.90226,1.553371 4.02124,1.383428 5.66104,-0.859166 1.12414,-1.537219 2.83903,-2.795037 3.81109,-2.795037 2.37113,0 4.33793,11.132036 3.02392,17.114753 -1.52622,6.94893 2.55052,10.42923 10.73716,9.16609 3.53702,-0.54574 6.67022,-1.18634 6.96234,-1.42364 2.15633,-1.75029 -32.20926,-46.007625 -37.70792,-48.561753 -1.20111,-0.557942 -1.613,1.597189 -5.89886,30.866897 -1.61471,11.027386 -2.46649,21.272936 -1.89274,22.767886 1.20747,3.14678 6.20318,3.44319 15.327,0.90934 z m 62.24534,-3.26088 c 3.36862,-6.51419 3.34301,-13.62344 -0.0619,-17.386584 -1.47622,-1.631384 -2.93354,-6.718331 -3.23837,-11.304385 -0.53543,-8.056395 -4.31902,-21.227919 -6.09664,-21.224138 -1.64719,0 -12.05151,24.923533 -12.04447,28.848545 0.0172,7.973742 11.54066,26.136162 16.58671,26.136162 1.22861,0 3.41346,-2.28143 4.85532,-5.0696 z m -127.9715,1.59032 c 0,-1.8704 -7.15359,-5.11238 -11.28102,-5.11238 -3.51313,0 -3.06138,4.74723 0.54145,5.68888 5.6119,1.46642 10.73957,1.19132 10.73957,-0.5765 z m -86.598732,-9.50134 c 1.506117,-6.00127 -0.109973,-21.146469 -2.511856,-23.549211 -1.469001,-1.46883 -1.96096,1.789813 -1.96096,12.988692 0,14.580899 2.174892,19.715959 4.472816,10.560519 z M 77.858342,57.745518 c -2.11252,-8.145061 -4.21885,-12.444841 -6.98347,-14.256306 -2.17713,-1.426558 -3.95852,-1.885353 -3.95852,-1.019486 0,0.865696 1.04921,1.976597 2.33143,2.468727 1.28222,0.491958 2.79435,3.860918 3.36037,7.486596 0.56584,3.625679 1.846,11.900818 2.84469,18.389064 0.99853,6.488418 2.38608,12.674414 3.08338,13.746644 2.69657,4.14754 2.19379,-15.743345 -0.67788,-26.815239 z m 53.405378,18.88463 c -1.50508,-12.718571 -4.06471,-20.19039 -6.91645,-20.19039 -3.13097,0 -3.11877,1.678466 0.0292,4.106468 1.92848,1.487215 2.14516,3.612275 0.98271,9.640181 -1.12894,5.853667 -0.88545,8.6719 1.0023,11.59873 4.2216,6.54547 6.05781,4.61424 4.90172,-5.154989 z m 211.96542,-3.155715 c 4.34067,-3.192143 7.21183,-6.685854 7.21183,-8.775516 0,-2.526463 0.77549,-3.174273 2.84745,-2.379202 1.64307,0.630456 5.4591,-0.577359 9.0212,-2.855522 3.3956,-2.171455 8.30023,-5.030758 10.89921,-6.354217 5.62427,-2.863599 5.88253,-5.045707 1.28875,-10.885799 -1.89017,-2.402914 -3.43667,-4.970444 -3.43667,-5.705546 0,-2.224036 -7.32129,-9.2905 -9.62557,-9.2905 -3.18407,0 -8.87154,7.956388 -10.19139,14.256992 -0.63406,3.027012 -3.65231,8.210186 -6.70699,11.517973 -9.70135,10.504673 -12.99763,15.793009 -12.99763,20.851776 0,6.343215 2.66513,6.256445 11.68981,-0.380439 z m -225.80589,0.867242 c 0.57375,-1.494948 1.04303,-4.682624 1.04303,-7.083648 0,-3.68582 -0.4014,-4.032579 -2.5775,-2.226613 -1.41762,1.176541 -2.57749,4.364217 -2.57749,7.083648 0,5.334215 2.41717,6.643065 4.11196,2.226613 z m 56.62726,-4.584851 c 2.30686,-3.723623 7.20376,-33.581859 5.74661,-35.038832 -1.39786,-1.397862 -9.78091,2.774417 -9.78091,4.868032 0,1.173104 1.27157,5.462402 2.82562,9.531754 3.00399,7.865832 2.28968,10.854182 -1.7862,7.471475 -1.97986,-1.643068 -2.84865,-1.432401 -4.30596,1.043886 -2.71273,4.610111 -5.35123,-0.265654 -3.54733,-6.555261 1.53688,-5.359131 -1.1042,-8.776892 -3.66193,-4.738642 -2.47766,3.911953 -1.76198,9.824043 2.11509,17.471819 5.42477,10.700907 8.52722,12.189153 12.39501,5.945769 z M 54.888032,65.687816 c 0,-1.417623 -0.773249,-2.099629 -1.718331,-1.515568 -0.945082,0.584061 -1.718331,2.221802 -1.718331,3.639425 0,1.417623 0.773249,2.099629 1.718331,1.515568 0.945082,-0.58406 1.718331,-2.221802 1.718331,-3.639425 z M 230.74392,59.784318 c 2.50756,-1.972472 5.33525,-6.682246 6.41144,-10.679084 1.059,-3.932745 3.39731,-9.021582 5.1964,-11.308852 1.79909,-2.287098 3.27102,-5.923087 3.27102,-8.080108 0,-4.818716 -6.20198,-19.671454 -8.21414,-19.671454 -0.8047,0 -3.28081,3.286308 -5.50261,7.302907 -2.22163,4.016599 -6.03702,9.787614 -8.47842,12.824248 -14.41096,17.925286 -14.34961,17.687297 -6.89137,26.735513 6.06829,7.361674 8.00691,7.754313 14.20768,2.87683 z M 55.967831,54.516087 c 3.837549,-1.294076 -0.711217,-8.032339 -6.242353,-9.247199 -6.829507,-1.499931 -7.927177,-0.376315 -4.463537,4.568698 1.514022,2.161661 2.752767,5.424428 2.752767,7.250842 0,3.014812 0.276995,3.079421 3.007079,0.701079 1.653894,-1.44082 3.879648,-2.913774 4.946044,-3.27342 z m 4.075194,3.642002 c 0,-0.945082 -0.773249,-1.718331 -1.718331,-1.718331 -0.945082,0 -1.718331,0.773249 -1.718331,1.718331 0,0.945082 0.773249,1.718331 1.718331,1.718331 0.945082,0 1.718331,-0.773249 1.718331,-1.718331 z m 56.704925,-9.319712 c 0,-2.821328 -9.40237,-11.634991 -10.85865,-10.178705 -1.66231,1.662312 -1.44735,6.996528 0.42322,10.500548 0.87618,1.641007 2.09345,4.530208 2.70517,6.420373 1.0786,3.332703 1.21229,3.313973 4.42127,-0.619974 1.82005,-2.231081 3.30899,-4.986082 3.30899,-6.122242 z m 24.98092,6.312633 c -1.05179,-2.722352 -1.83827,-6.193381 -5.96742,-26.337032 -2.38659,-11.642037 -4.70032,-12.791084 -9.47625,-4.705993 -3.20829,5.431129 -3.20469,5.489896 0.4887,7.942126 2.15977,1.434119 3.7207,4.267647 3.7207,6.754416 0,4.20424 -0.0825,4.230187 -4.41061,1.393738 l -4.41079,-2.889889 2.90965,4.440682 c 2.2328,3.407795 3.4413,3.999588 5.19469,2.544505 3.11499,-2.585229 5.87205,-0.531308 5.87205,4.374527 0,5.949894 1.73964,9.489999 4.66355,9.489999 1.75184,0 2.20531,-0.963296 1.41573,-3.007079 z M 89.313422,51.174964 c 1.18754,-2.218881 1.3006,-4.309403 0.30191,-5.584576 -0.87772,-1.12104 -2.97924,-5.736305 -4.66991,-10.256374 -3.73857,-9.995532 -6.84961,-12.657227 -5.20637,-4.454602 1.83363,9.153893 6.10025,23.842015 6.92573,23.842015 0.41292,0 1.60475,-1.595986 2.64864,-3.546463 z M 209.96741,36.77071 c 5.82222,-7.296893 6.31572,-15.444016 1.10437,-18.233039 -4.62506,-2.475084 -5.64609,-1.175682 -8.35659,10.636641 -3.30762,14.413876 -0.51842,17.335383 7.25222,7.596398 z m -50.32167,-0.83803 c 0.97842,-1.82796 1.75442,-5.500893 1.72452,-8.162072 l -0.055,-4.838305 -4.24153,4.821293 c -4.69946,5.341776 -5.62307,11.502852 -1.72452,11.502852 1.38446,0 3.31758,-1.495635 4.29583,-3.323768 z M 48.014708,34.435327 c 0,-0.761565 -1.933123,-4.004743 -4.295828,-7.207196 l -4.295828,-5.822737 0,5.403464 c 0,3.33339 1.152141,6.074472 3.00708,7.154959 3.680149,2.143446 5.584576,2.304282 5.584576,0.47151 z M 174.34176,28.89852 c 0.85797,-1.388411 -6.07859,-9.083613 -7.1809,-7.966183 -0.15293,0.15465 0.13059,2.408069 0.62994,5.007045 0.90419,4.706681 4.47419,6.319335 6.55096,2.959138 z m 20.40639,-2.670115 c 1.62588,-4.236889 1.22775,-9.310261 -0.73064,-9.310261 -2.21767,0 -4.9292,6.993436 -3.83084,9.880404 1.12722,2.962918 3.31053,2.690047 4.56148,-0.570143 z M 159.53113,11.43598 c -2.2981,-4.2941087 -1.31229,-9.0724447 1.91645,-9.2884387 8.04076,-0.53801 8.56863,-0.839577 8.56863,-4.894323 0,-2.310124 -1.82212,-6.318475 -4.04924,-8.9076563 l -4.04925,-4.70754 -2.73662,4.182246 c -1.50525,2.3001583 -3.93583,8.7906383 -5.40157,14.4234993 -4.44154,17.0690427 -3.22273,22.5668437 3.58495,16.1713867 3.11706,-2.92838 3.56399,-4.368169 2.16665,-6.979174 z m -11.51815,858.63355 c -0.0344,-2.83525 0.32133,-4.20321 0.79215,-3.03973 0.47065,1.16331 0.49935,3.48306 0.0636,5.15499 -0.43576,1.67177 -0.82084,0.71998 -0.8559,-2.11526 z M 518.86304,251.91315 c 0.0433,-6.38291 2.59912,-9.06248 6.83918,-7.17042 3.63017,1.6197 3.60489,1.72073 -1.5883,6.34803 -5.23198,4.66166 -5.27696,4.6687 -5.25088,0.82239 z m 19.53688,-17.56564 c 1.52632,-2.32954 2.77512,-6.15008 2.77512,-8.49027 0,-6.05987 3.06399,-7.15565 5.43822,-1.94481 1.79169,3.9324 1.46971,4.99536 -2.89167,9.54773 -5.94252,6.20266 -9.15542,6.73827 -5.32167,0.88735 z m -10.97153,-11.22964 c 0,-0.94508 0.34099,-1.71833 0.75775,-1.71833 0.41676,0 1.23565,0.77325 1.81975,1.71833 0.58409,0.94509 0.24311,1.71833 -0.75775,1.71833 -1.00086,0 -1.81975,-0.77324 -1.81975,-1.71833 z m 15.60064,-9.30768 c -0.0746,-1.81129 0.33152,-2.82631 0.9025,-2.25531 0.57099,0.571 0.63202,2.05306 0.13558,3.29353 -0.54853,1.37071 -0.9557,0.96364 -1.03815,-1.03822 z"
       id="path4874"
       style="fill:#000000" />
  </g>
</svg>
